<svg xmlns="http://www.w3.org/2000/svg" width="390.296" height="248.968" viewBox="0 0 390.296 248.968">
  <g id="astro" transform="translate(-12.849 -86.125)">
    <path id="Path_4" data-name="Path 4" d="M222.66,162.023a22.952,22.952,0,1,0-27.176-17.75A22.952,22.952,0,0,0,222.66,162.023Zm0,0"/>
    <path id="Path_5" data-name="Path 5" d="M257.273,187.273a8.867,8.867,0,1,0-10.5-6.855A8.87,8.87,0,0,0,257.273,187.273Zm0,0"/>
    <path id="Path_6" data-name="Path 6" d="M156.043,151.9a12.113,12.113,0,1,0,14.344,9.367A12.114,12.114,0,0,0,156.043,151.9Zm0,0"/>
    <path id="Path_7" data-name="Path 7" d="M332.133,148.516a6.827,6.827,0,0,0-6.766,6.887c.039,3.773,3.246,7.1,6.887,6.766,45.191-.605,56.523,7.652,57.184,10.793.637,3.023-6.273,14.609-45.32,31.707-5.969,2.617-12.352,5.2-19.055,7.75a125.291,125.291,0,0,0-2.652-27.355A124.452,124.452,0,1,0,86.332,259.871c-1.863.027-3.723.055-5.535.059h-.3c-42.383,0-53.316-7.793-53.949-10.809-.527-2.52,4.68-12.246,34.73-26.832a6.826,6.826,0,0,0-5.961-12.281c-31.1,15.094-44.879,28.8-42.129,41.914,3.055,14.574,25.07,21.66,67.289,21.66h.332c3.98,0,8.113-.09,12.332-.223a124.336,124.336,0,0,0,133.027,59.07A124.692,124.692,0,0,0,324,227.379c9.109-3.332,17.7-6.742,25.6-10.2,38.871-17.027,56.273-32.406,53.207-47.016C399.66,155.188,376.293,147.961,332.133,148.516ZM92.172,233.383a110.8,110.8,0,0,1,85.68-131.2,111.643,111.643,0,0,1,22.98-2.4,110.771,110.771,0,0,1,110.355,117.68c-28.23,9.828-61.312,18.863-96.34,26.215-41.074,8.613-80.625,14.039-113.777,15.7A111.349,111.349,0,0,1,92.172,233.383Zm131.2,85.688a111,111,0,0,1-114.656-46.461c32.379-2.066,70.023-7.41,108.926-15.574a826.061,826.061,0,0,0,91.563-24.48A110.968,110.968,0,0,1,223.375,319.07Zm0,0"/>
  </g>
</svg>
