<svg id="Capa_1" enable-background="new 0 0 512 512" height="512" viewBox="0 0 512 512" width="512" xmlns="http://www.w3.org/2000/svg"><g><path d="m474.719 308.371c7.669-21.816 11.561-44.68 11.561-68.096 0-113.326-92.202-205.524-205.534-205.524-26.583 0-52.372 4.984-76.752 14.813-.071-.241-.142-.483-.185-.735-4.644-27.521-14.2-42.678-26.909-42.678-12.708 0-22.265 15.157-26.909 42.678-.449 2.661-2.539 4.751-5.2 5.2-27.521 4.643-42.678 14.199-42.678 26.908 0 9.664 8.772 17.502 25.072 22.746-33.596 37.662-51.964 85.676-51.964 136.592 0 36.083 9.43 71.36 27.313 102.416l-96.34 96.34c-8.259 8.26-8.259 21.699 0 29.959l30.665 30.664c4.13 4.13 9.555 6.195 14.98 6.195s10.85-2.065 14.98-6.195l37.677-37.677c2.929-2.929 2.929-7.678 0-10.607-2.93-2.929-7.678-2.929-10.608 0l-37.677 37.677c-2.41 2.411-6.334 2.411-8.744 0l-30.665-30.664c-2.411-2.411-2.411-6.335 0-8.746l202.377-202.377 39.41 39.409-139.664 139.665c-2.929 2.929-2.929 7.678 0 10.607 1.465 1.464 3.385 2.197 5.304 2.197s3.839-.732 5.304-2.197l30.4-30.401c35.254 25.701 76.877 39.258 120.813 39.258 51.228 0 99.557-18.607 137.331-52.616 4.982 10.375 11.487 15.874 19.137 15.874 12.708 0 22.265-15.157 26.909-42.678.449-2.661 2.538-4.751 5.2-5.2 27.521-4.644 42.678-14.2 42.678-26.909-.001-11.849-13.186-20.957-37.282-25.898zm-357.603-227.434c.368-1.96 8.127-8.398 30.171-12.117 8.954-1.511 15.985-8.543 17.495-17.496 3.733-22.124 10.204-29.86 12.096-30.175 1.935.314 8.405 8.048 12.139 30.175 1.522 9.012 8.66 16.004 17.495 17.495 22.125 3.732 29.861 10.204 30.175 12.095-.314 1.935-8.05 8.406-30.175 12.139-8.952 1.511-15.984 8.542-17.495 17.495-3.733 22.127-10.204 29.861-12.096 30.175-1.935-.315-8.405-8.051-12.139-30.174-1.511-8.954-8.541-15.985-17.495-17.496-17.041-2.874-29.518-8.641-30.171-12.116zm163.629 349.861c-39.934 0-77.806-12.075-110.07-35.001l174.677-174.677c7.104-7.102 11.015-16.546 11.015-26.59s-3.911-19.488-11.015-26.591l-7.442-7.442c-7.103-7.103-16.546-11.014-26.59-11.014s-19.488 3.912-26.591 11.014l-11.107 11.107c-2.929 2.929-2.929 7.678 0 10.607 2.93 2.929 7.678 2.929 10.608 0l11.106-11.107c4.27-4.269 9.947-6.621 15.985-6.621 6.037 0 11.714 2.351 15.984 6.621l7.442 7.442c4.27 4.27 6.621 9.946 6.621 15.984s-2.351 11.714-6.621 15.984l-65.549 65.549-39.41-39.409 29.734-29.734c2.929-2.929 2.929-7.678 0-10.607-2.93-2.929-7.678-2.929-10.608 0l-135.366 135.364c-15.286-27.911-23.326-59.311-23.326-91.403 0-49.926 19.047-96.849 53.708-132.581.289.05.57.103.862.152 2.661.449 4.751 2.539 5.2 5.2 4.644 27.521 14.2 42.678 26.909 42.678 12.708 0 22.265-15.157 26.909-42.677.449-2.662 2.539-4.752 5.2-5.201 27.522-4.644 42.679-14.2 42.679-26.909 0-9.868-9.143-17.834-26.113-23.076 17.782-5.379 36.256-8.11 55.17-8.11 105.061 0 190.534 85.468 190.534 190.524 0 19.108-2.799 37.813-8.31 55.806-4.973-23.659-14.018-36.597-25.756-36.597-12.708 0-22.265 15.157-26.909 42.679-.449 2.661-2.538 4.751-5.2 5.2-27.521 4.644-42.678 14.2-42.678 26.909s15.157 22.265 42.679 26.909c2.661.449 4.75 2.539 5.199 5.2.685 4.058 1.479 7.84 2.372 11.351-35.652 34.253-82.327 53.067-131.932 53.067zm186.082-84.41c-8.955 1.51-15.986 8.542-17.496 17.495-3.733 22.124-10.204 29.86-12.096 30.175-1.449-.235-5.44-4.631-8.921-16.112-1.199-4.264-2.116-7.532-3.218-14.063-1.511-8.954-8.541-15.986-17.495-17.496-22.044-3.72-29.803-10.157-30.171-12.117.368-1.96 8.127-8.398 30.171-12.117 8.955-1.51 15.986-8.542 17.496-17.495 3.733-22.126 10.204-29.861 12.096-30.175 1.935.315 8.405 8.051 12.139 30.175 1.511 8.954 8.541 15.986 17.495 17.496 22.125 3.733 29.861 10.204 30.174 12.096-.314 1.934-8.049 8.405-30.174 12.138z"/></g></svg>